/* XPM */
static char * swamp64_xpm[] = {
"64 64 3 1",
" 	c None",
".	c #D9DADA",
"+	c #EF7F1A",
"                                                                ",
"                                                                ",
"                                                                ",
"                                                                ",
"                                                                ",
"                                                                ",
"                                                                ",
"                                                                ",
"                                                                ",
"                                                                ",
"                                                                ",
"                 .......                +++++++                 ",
"                .........              +++++++++                ",
"               ...........            +++++++++++               ",
"              ............            ++++++++++++              ",
"              .............          +++++++++++++              ",
"              .............          +++++++++++++              ",
"              .............          +++++++++++++              ",
"              .............          +++++++++++++              ",
"     ..       ............            ++++++++++++       ++     ",
"     ...       ...........            +++++++++++       +++     ",
"    ....       ..........              ++++++++++       ++++    ",
"    .....       ........                +++++++        +++++    ",
"    ......         ...                    +++         ++++++    ",
"   ........                                          ++++++++   ",
"   .........                                        +++++++++   ",
"   ...........                                    +++++++++++   ",
"   ............                                  ++++++++++++   ",
"   ..............                              ++++++++++++++   ",
"  ................                            ++++++++++++++++  ",
"  ...................                      +++++++++++++++++++  ",
"  ......................                ++++++++++++++++++++++  ",
"  ...........................      +++++++++++++++++++++++++++  ",
"  ...........................      +++++++++++++++++++++++++++  ",
"  ...........................      +++++++++++++++++++++++++++  ",
"   ..........................      ++++++++++++++++++++++++++   ",
"   .........................        +++++++++++++++++++++++++   ",
"   .....................                +++++++++++++++++++++   ",
"   .....................                +++++++++++++++++++++   ",
"   .....................                +++++++++++++++++++++   ",
"    ....................                ++++++++++++++++++++    ",
"    ....................                ++++++++++++++++++++    ",
"    ....................                ++++++++++++++++++++    ",
"     ...................                +++++++++++++++++++     ",
"     ...................                +++++++++++++++++++     ",
"      ..................                ++++++++++++++++++      ",
"      ..................                ++++++++++++++++++      ",
"       ..................              ++++++++++++++++++       ",
"       ..................              ++++++++++++++++++       ",
"        .................              +++++++++++++++++        ",
"         ................              ++++++++++++++++         ",
"           ...............            +++++++++++++++           ",
"           ...............            +++++++++++++++           ",
"             .............            +++++++++++++             ",
"             ..............          ++++++++++++++             ",
"              .............          +++++++++++++              ",
"               .............        +++++++++++++               ",
"                 ...........        +++++++++++                 ",
"                   ..........      ++++++++++                   ",
"                     ........      ++++++++                     ",
"                        ......    ++++++                        ",
"                             ..  ++                             ",
"                                                                ",
"                                                                "};
