/* XPM */
static char * veco16_xpm[] = {
"16 16 3 1",
" 	c None",
".	c #D9DADA",
"+	c #EF7F1A",
"                ",
"                ",
"                ",
"    ..    ++    ",
"    ..    ++    ",
" .   .    +   + ",
" ..          ++ ",
" ...        +++ ",
" ......  ++++++ ",
" .....    +++++ ",
" .....    +++++ ",
"  ....    ++++  ",
"   ...    +++   ",
"    ..    ++    ",
"     ..  ++     ",
"                "};
